<?xml version="1.0" encoding="UTF-8" standalone="no"?>
<!DOCTYPE svg PUBLIC "-//W3C//DTD SVG 1.1//EN" "http://www.w3.org/Graphics/SVG/1.1/DTD/svg11.dtd">
<svg width="100%" height="100%" viewBox="0 0 5906 5906" version="1.1" xmlns="http://www.w3.org/2000/svg" xmlns:xlink="http://www.w3.org/1999/xlink" xml:space="preserve" xmlns:serif="http://www.serif.com/" style="fill-rule:evenodd;clip-rule:evenodd;stroke-linejoin:round;stroke-miterlimit:2;">
    <g id="_2022" serif:id="2022" transform="matrix(7.86526,0,0,7.85154,-1247.22,-2457.45)">
        <g transform="matrix(37.5367,0,0,28.8789,-442.229,-9966.07)">
            <path d="M36.008,370.467L36.008,381.981L16.006,381.981L36.008,370.467Z" style="fill:rgb(28,68,135);"/>
        </g>
        <g transform="matrix(2.08333,0,0,2.08333,125.239,269.365)">
            <path d="M16,381.97L376.401,222.36L376.401,20.94L16,381.97Z" style="fill:rgb(60,120,216);"/>
        </g>
        <g transform="matrix(2.08333,0,0,2.08333,125.239,269.365)">
            <path d="M16,381.97L376.401,20.94L175.167,20.94L16,381.97Z" style="fill:rgb(147,196,125);"/>
        </g>
        <g transform="matrix(2.08333,0,0,2.08333,125.239,269.365)">
            <path d="M16,381.97L175.167,20.94L16,20.94L16,381.97Z" style="fill:rgb(255,217,102);"/>
        </g>
        <g id="Text" transform="matrix(0.127141,0,0,0.127364,161.639,308.081)">
            <g transform="matrix(1.76421,0,0,1.73117,1595.71,857.157)">
                <g transform="matrix(600,0,0,600,-814.561,1074.94)">
                    <path d="M0.531,-0.263L0.671,-0.219C0.649,-0.141 0.614,-0.083 0.564,-0.045C0.514,-0.007 0.45,0.012 0.374,0.012C0.278,0.012 0.2,-0.02 0.139,-0.085C0.078,-0.15 0.047,-0.239 0.047,-0.352C0.047,-0.471 0.078,-0.563 0.14,-0.629C0.201,-0.695 0.282,-0.728 0.382,-0.728C0.47,-0.728 0.541,-0.702 0.596,-0.65C0.628,-0.62 0.653,-0.576 0.669,-0.519L0.526,-0.484C0.517,-0.521 0.5,-0.551 0.473,-0.572C0.446,-0.594 0.413,-0.604 0.375,-0.604C0.322,-0.604 0.279,-0.585 0.246,-0.547C0.213,-0.509 0.196,-0.448 0.196,-0.362C0.196,-0.272 0.213,-0.207 0.245,-0.169C0.278,-0.131 0.32,-0.111 0.372,-0.111C0.41,-0.111 0.444,-0.124 0.471,-0.148C0.499,-0.172 0.519,-0.211 0.531,-0.263Z" style="fill:white;fill-rule:nonzero;"/>
                </g>
                <g transform="matrix(600,0,0,600,-381.26,1074.94)">
                    <path d="M0.255,-0L-0,-0.716L0.156,-0.716L0.337,-0.186L0.513,-0.716L0.666,-0.716L0.41,-0L0.255,-0Z" style="fill:white;fill-rule:nonzero;"/>
                </g>
                <g transform="matrix(600,0,0,600,18.9355,1074.94)">
                    <path d="M0.073,-0L0.073,-0.716L0.305,-0.716C0.393,-0.716 0.45,-0.712 0.477,-0.705C0.518,-0.694 0.552,-0.671 0.58,-0.635C0.607,-0.599 0.621,-0.553 0.621,-0.496C0.621,-0.452 0.613,-0.415 0.597,-0.385C0.581,-0.355 0.561,-0.331 0.536,-0.314C0.512,-0.297 0.487,-0.286 0.461,-0.28C0.427,-0.273 0.377,-0.27 0.312,-0.27L0.217,-0.27L0.217,-0L0.073,-0ZM0.217,-0.595L0.217,-0.392L0.296,-0.392C0.353,-0.392 0.391,-0.395 0.411,-0.403C0.43,-0.41 0.445,-0.422 0.456,-0.438C0.467,-0.454 0.472,-0.472 0.472,-0.494C0.472,-0.52 0.465,-0.541 0.449,-0.558C0.434,-0.575 0.415,-0.586 0.391,-0.59C0.374,-0.593 0.339,-0.595 0.287,-0.595L0.217,-0.595Z" style="fill:white;fill-rule:nonzero;"/>
                </g>
                <g transform="matrix(600,0,0,600,419.131,1074.94)">
                    <path d="M0.073,-0L0.073,-0.716L0.377,-0.716C0.454,-0.716 0.51,-0.709 0.544,-0.697C0.579,-0.684 0.607,-0.661 0.627,-0.628C0.648,-0.595 0.659,-0.557 0.659,-0.515C0.659,-0.461 0.643,-0.417 0.611,-0.382C0.58,-0.347 0.533,-0.325 0.47,-0.316C0.501,-0.298 0.527,-0.278 0.547,-0.256C0.567,-0.234 0.595,-0.195 0.629,-0.14L0.717,-0L0.544,-0L0.439,-0.156C0.402,-0.211 0.377,-0.247 0.363,-0.261C0.35,-0.275 0.335,-0.285 0.32,-0.291C0.305,-0.296 0.28,-0.299 0.247,-0.299L0.218,-0.299L0.218,-0L0.073,-0ZM0.218,-0.413L0.325,-0.413C0.394,-0.413 0.437,-0.416 0.455,-0.422C0.472,-0.428 0.485,-0.438 0.495,-0.452C0.505,-0.466 0.51,-0.484 0.51,-0.506C0.51,-0.53 0.503,-0.549 0.49,-0.564C0.478,-0.579 0.459,-0.588 0.436,-0.592C0.424,-0.594 0.389,-0.595 0.331,-0.595L0.218,-0.595L0.218,-0.413Z" style="fill:white;fill-rule:nonzero;"/>
                </g>
                <g transform="matrix(600,0,0,600,852.432,1074.94)">
                    <rect x="0.056" y="-0.328" width="0.27" height="0.137" style="fill:white;fill-rule:nonzero;"/>
                </g>
                <g transform="matrix(600,0,0,600,1052.24,1074.94)">
                    <path d="M0.074,-0L0.074,-0.716L0.215,-0.716L0.508,-0.238L0.508,-0.716L0.642,-0.716L0.642,-0L0.497,-0L0.208,-0.467L0.208,-0L0.074,-0Z" style="fill:white;fill-rule:nonzero;"/>
                </g>
                <g transform="matrix(600,0,0,600,1485.54,1074.94)">
                    <path d="M0.718,-0L0.561,-0L0.499,-0.163L0.212,-0.163L0.153,-0L0,-0L0.279,-0.716L0.432,-0.716L0.718,-0ZM0.452,-0.283L0.354,-0.549L0.257,-0.283L0.452,-0.283Z" style="fill:white;fill-rule:nonzero;"/>
                </g>
                <g transform="matrix(600,0,0,600,1918.84,1074.94)">
                    <path d="M0.036,-0.233L0.177,-0.247C0.185,-0.199 0.202,-0.165 0.228,-0.143C0.254,-0.12 0.289,-0.109 0.333,-0.109C0.38,-0.109 0.415,-0.119 0.438,-0.139C0.462,-0.159 0.474,-0.182 0.474,-0.208C0.474,-0.225 0.469,-0.239 0.459,-0.251C0.449,-0.263 0.431,-0.273 0.407,-0.282C0.39,-0.288 0.351,-0.299 0.291,-0.313C0.214,-0.333 0.159,-0.356 0.128,-0.384C0.084,-0.424 0.062,-0.472 0.062,-0.528C0.062,-0.565 0.072,-0.599 0.093,-0.631C0.114,-0.662 0.143,-0.687 0.182,-0.703C0.221,-0.72 0.268,-0.728 0.323,-0.728C0.413,-0.728 0.481,-0.708 0.526,-0.669C0.572,-0.63 0.595,-0.577 0.598,-0.511L0.453,-0.505C0.447,-0.542 0.434,-0.568 0.413,-0.584C0.393,-0.6 0.362,-0.608 0.322,-0.608C0.28,-0.608 0.247,-0.6 0.223,-0.583C0.208,-0.571 0.2,-0.557 0.2,-0.538C0.2,-0.521 0.207,-0.507 0.222,-0.495C0.24,-0.479 0.284,-0.463 0.354,-0.447C0.425,-0.43 0.477,-0.413 0.51,-0.395C0.544,-0.378 0.571,-0.353 0.59,-0.323C0.609,-0.292 0.618,-0.254 0.618,-0.208C0.618,-0.167 0.607,-0.129 0.584,-0.093C0.561,-0.057 0.529,-0.031 0.487,-0.013C0.446,0.004 0.394,0.013 0.332,0.013C0.241,0.013 0.172,-0.008 0.123,-0.05C0.075,-0.092 0.046,-0.153 0.036,-0.233Z" style="fill:white;fill-rule:nonzero;"/>
                </g>
            </g>
            <g transform="matrix(2.62617,0,0,2.55594,4478.97,-3591.15)">
                <g transform="matrix(400,0,0,400,-1009.13,2959.9)">
                    <path d="M0.506,-0.127L0.506,-0L0.025,-0C0.03,-0.048 0.046,-0.094 0.072,-0.137C0.098,-0.18 0.149,-0.237 0.226,-0.309C0.288,-0.366 0.326,-0.405 0.34,-0.426C0.359,-0.454 0.368,-0.482 0.368,-0.51C0.368,-0.54 0.36,-0.564 0.344,-0.58C0.327,-0.597 0.304,-0.605 0.275,-0.605C0.247,-0.605 0.224,-0.596 0.207,-0.579C0.19,-0.562 0.18,-0.533 0.178,-0.493L0.041,-0.507C0.049,-0.582 0.075,-0.637 0.118,-0.669C0.161,-0.702 0.214,-0.719 0.279,-0.719C0.349,-0.719 0.405,-0.7 0.445,-0.662C0.486,-0.624 0.506,-0.576 0.506,-0.52C0.506,-0.487 0.5,-0.457 0.489,-0.427C0.477,-0.398 0.459,-0.368 0.434,-0.336C0.417,-0.315 0.387,-0.284 0.344,-0.245C0.3,-0.205 0.273,-0.179 0.261,-0.166C0.25,-0.153 0.241,-0.14 0.233,-0.127L0.506,-0.127Z" style="fill:white;fill-rule:nonzero;"/>
                </g>
                <g transform="matrix(400,0,0,400,-786.671,2959.9)">
                    <path d="M0.274,-0.719C0.344,-0.719 0.398,-0.694 0.437,-0.645C0.484,-0.586 0.507,-0.489 0.507,-0.353C0.507,-0.218 0.483,-0.12 0.437,-0.061C0.398,-0.012 0.344,0.012 0.274,0.012C0.205,0.012 0.149,-0.015 0.106,-0.068C0.063,-0.122 0.042,-0.217 0.042,-0.354C0.042,-0.489 0.065,-0.586 0.112,-0.646C0.151,-0.694 0.205,-0.719 0.274,-0.719ZM0.274,-0.605C0.258,-0.605 0.243,-0.6 0.23,-0.589C0.217,-0.579 0.207,-0.56 0.2,-0.532C0.19,-0.497 0.186,-0.437 0.186,-0.353C0.186,-0.269 0.19,-0.211 0.198,-0.18C0.207,-0.149 0.217,-0.128 0.23,-0.117C0.243,-0.107 0.258,-0.102 0.274,-0.102C0.291,-0.102 0.306,-0.107 0.319,-0.117C0.332,-0.128 0.342,-0.147 0.349,-0.174C0.359,-0.209 0.363,-0.269 0.363,-0.353C0.363,-0.437 0.359,-0.495 0.351,-0.526C0.342,-0.558 0.331,-0.579 0.319,-0.589C0.306,-0.6 0.291,-0.605 0.274,-0.605Z" style="fill:white;fill-rule:nonzero;"/>
                </g>
                <g transform="matrix(400,0,0,400,-564.21,2959.9)">
                    <path d="M0.506,-0.127L0.506,-0L0.025,-0C0.03,-0.048 0.046,-0.094 0.072,-0.137C0.098,-0.18 0.149,-0.237 0.226,-0.309C0.288,-0.366 0.326,-0.405 0.34,-0.426C0.359,-0.454 0.368,-0.482 0.368,-0.51C0.368,-0.54 0.36,-0.564 0.344,-0.58C0.327,-0.597 0.304,-0.605 0.275,-0.605C0.247,-0.605 0.224,-0.596 0.207,-0.579C0.19,-0.562 0.18,-0.533 0.178,-0.493L0.041,-0.507C0.049,-0.582 0.075,-0.637 0.118,-0.669C0.161,-0.702 0.214,-0.719 0.279,-0.719C0.349,-0.719 0.405,-0.7 0.445,-0.662C0.486,-0.624 0.506,-0.576 0.506,-0.52C0.506,-0.487 0.5,-0.457 0.489,-0.427C0.477,-0.398 0.459,-0.368 0.434,-0.336C0.417,-0.315 0.387,-0.284 0.344,-0.245C0.3,-0.205 0.273,-0.179 0.261,-0.166C0.25,-0.153 0.241,-0.14 0.233,-0.127L0.506,-0.127Z" style="fill:white;fill-rule:nonzero;"/>
                </g>
                <g transform="matrix(400,0,0,400,-341.749,2959.9)">
                    <path d="M0.506,-0.127L0.506,-0L0.025,-0C0.03,-0.048 0.046,-0.094 0.072,-0.137C0.098,-0.18 0.149,-0.237 0.226,-0.309C0.288,-0.366 0.326,-0.405 0.34,-0.426C0.359,-0.454 0.368,-0.482 0.368,-0.51C0.368,-0.54 0.36,-0.564 0.344,-0.58C0.327,-0.597 0.304,-0.605 0.275,-0.605C0.247,-0.605 0.224,-0.596 0.207,-0.579C0.19,-0.562 0.18,-0.533 0.178,-0.493L0.041,-0.507C0.049,-0.582 0.075,-0.637 0.118,-0.669C0.161,-0.702 0.214,-0.719 0.279,-0.719C0.349,-0.719 0.405,-0.7 0.445,-0.662C0.486,-0.624 0.506,-0.576 0.506,-0.52C0.506,-0.487 0.5,-0.457 0.489,-0.427C0.477,-0.398 0.459,-0.368 0.434,-0.336C0.417,-0.315 0.387,-0.284 0.344,-0.245C0.3,-0.205 0.273,-0.179 0.261,-0.166C0.25,-0.153 0.241,-0.14 0.233,-0.127L0.506,-0.127Z" style="fill:white;fill-rule:nonzero;"/>
                </g>
            </g>
        </g>
    </g>
    <g id="_2023" serif:id="2023" transform="matrix(7.86526,0,0,7.85154,-1247.22,-2457.45)">
        <g transform="matrix(37.5367,0,0,28.8789,-442.229,-9966.07)">
            <path d="M36.008,370.467L36.008,381.981L16.006,381.981L36.008,370.467Z" style="fill:rgb(255,184,186);"/>
        </g>
        <g transform="matrix(2.08333,0,0,2.08333,125.239,269.365)">
            <path d="M16,381.97L376.401,222.36L376.401,20.94L16,381.97Z" style="fill:rgb(255,154,133);"/>
        </g>
        <g transform="matrix(2.08333,0,0,2.08333,125.239,269.365)">
            <path d="M16,381.97L376.401,20.94L175.167,20.94L16,381.97Z" style="fill:rgb(255,105,91);"/>
        </g>
        <g transform="matrix(2.08333,0,0,2.08333,125.239,269.365)">
            <path d="M16,381.97L175.167,20.94L16,20.94L16,381.97Z" style="fill:rgb(232,64,52);"/>
        </g>
        <g id="Text1" serif:id="Text" transform="matrix(0.127141,0,0,0.127364,161.639,308.081)">
            <g transform="matrix(1.76421,0,0,1.73117,1599.94,857.157)">
                <g transform="matrix(600,0,0,600,-777.164,1074.94)">
                    <path d="M0.035,-0.361C0.035,-0.404 0.043,-0.447 0.058,-0.489C0.073,-0.53 0.096,-0.568 0.126,-0.603C0.155,-0.637 0.191,-0.664 0.234,-0.685C0.277,-0.705 0.325,-0.715 0.379,-0.715C0.443,-0.715 0.498,-0.701 0.545,-0.672C0.592,-0.643 0.626,-0.605 0.649,-0.56L0.561,-0.501C0.548,-0.53 0.531,-0.552 0.51,-0.569C0.49,-0.586 0.468,-0.597 0.445,-0.604C0.421,-0.611 0.398,-0.614 0.375,-0.614C0.338,-0.614 0.305,-0.607 0.277,-0.592C0.249,-0.577 0.226,-0.557 0.206,-0.532C0.188,-0.507 0.173,-0.48 0.164,-0.449C0.154,-0.418 0.149,-0.388 0.149,-0.357C0.149,-0.323 0.155,-0.29 0.166,-0.259C0.177,-0.227 0.193,-0.199 0.214,-0.174C0.234,-0.15 0.258,-0.131 0.286,-0.117C0.314,-0.103 0.345,-0.096 0.378,-0.096C0.401,-0.096 0.424,-0.1 0.449,-0.108C0.474,-0.116 0.497,-0.129 0.518,-0.146C0.539,-0.163 0.555,-0.185 0.567,-0.213L0.66,-0.16C0.645,-0.125 0.623,-0.095 0.592,-0.07C0.561,-0.045 0.526,-0.027 0.488,-0.014C0.449,-0.001 0.411,0.005 0.374,0.005C0.324,0.005 0.278,-0.006 0.237,-0.027C0.196,-0.048 0.16,-0.076 0.13,-0.111C0.1,-0.146 0.077,-0.185 0.06,-0.229C0.043,-0.272 0.035,-0.316 0.035,-0.361Z" style="fill:white;fill-rule:nonzero;"/>
                </g>
                <g transform="matrix(600,0,0,600,-373.964,1074.94)">
                    <path d="M0.125,-0.71L0.339,-0.137L0.552,-0.71L0.671,-0.71L0.392,-0L0.286,-0L0.006,-0.71L0.125,-0.71Z" style="fill:white;fill-rule:nonzero;"/>
                </g>
                <g transform="matrix(600,0,0,600,32.8363,1074.94)">
                    <path d="M0.08,-0L0.08,-0.71L0.378,-0.71C0.41,-0.71 0.439,-0.703 0.466,-0.69C0.493,-0.677 0.516,-0.659 0.536,-0.637C0.556,-0.615 0.571,-0.59 0.582,-0.563C0.593,-0.536 0.598,-0.508 0.598,-0.479C0.598,-0.44 0.589,-0.402 0.572,-0.367C0.554,-0.331 0.529,-0.302 0.497,-0.28C0.464,-0.258 0.427,-0.247 0.384,-0.247L0.192,-0.247L0.192,-0L0.08,-0ZM0.192,-0.346L0.377,-0.346C0.398,-0.346 0.417,-0.352 0.433,-0.364C0.449,-0.375 0.462,-0.391 0.47,-0.411C0.48,-0.431 0.484,-0.454 0.484,-0.479C0.484,-0.505 0.479,-0.528 0.468,-0.548C0.457,-0.568 0.444,-0.584 0.427,-0.595C0.409,-0.606 0.391,-0.611 0.371,-0.611L0.192,-0.611L0.192,-0.346Z" style="fill:white;fill-rule:nonzero;"/>
                </g>
                <g transform="matrix(600,0,0,600,406.636,1074.94)">
                    <path d="M0.08,-0L0.08,-0.71L0.389,-0.71C0.421,-0.71 0.45,-0.703 0.477,-0.69C0.504,-0.677 0.527,-0.659 0.547,-0.637C0.566,-0.615 0.582,-0.59 0.593,-0.563C0.604,-0.536 0.609,-0.508 0.609,-0.479C0.609,-0.448 0.603,-0.418 0.592,-0.389C0.581,-0.36 0.565,-0.336 0.544,-0.315C0.523,-0.294 0.498,-0.279 0.47,-0.27L0.637,-0L0.511,-0L0.357,-0.247L0.192,-0.247L0.192,-0L0.08,-0ZM0.192,-0.346L0.388,-0.346C0.409,-0.346 0.427,-0.352 0.443,-0.364C0.459,-0.376 0.472,-0.392 0.481,-0.412C0.49,-0.433 0.495,-0.455 0.495,-0.479C0.495,-0.504 0.49,-0.526 0.479,-0.546C0.468,-0.565 0.455,-0.581 0.438,-0.593C0.421,-0.605 0.402,-0.611 0.382,-0.611L0.192,-0.611L0.192,-0.346Z" style="fill:white;fill-rule:nonzero;"/>
                </g>
                <g transform="matrix(600,0,0,600,803.236,1074.94)">
                    <rect x="0.061" y="-0.323" width="0.299" height="0.099" style="fill:white;fill-rule:nonzero;"/>
                </g>
                <g transform="matrix(600,0,0,600,1055.84,1074.94)">
                    <path d="M0.192,-0.502L0.192,-0L0.08,-0L0.08,-0.71L0.172,-0.71L0.574,-0.197L0.574,-0.709L0.687,-0.709L0.687,-0L0.589,-0L0.192,-0.502Z" style="fill:white;fill-rule:nonzero;"/>
                </g>
                <g transform="matrix(600,0,0,600,1516.04,1074.94)">
                    <path d="M0.285,-0.71L0.391,-0.71L0.667,-0L0.549,-0L0.48,-0.193L0.196,-0.193L0.126,-0L0.007,-0L0.285,-0.71ZM0.45,-0.276L0.338,-0.587L0.226,-0.276L0.45,-0.276Z" style="fill:white;fill-rule:nonzero;"/>
                </g>
                <g transform="matrix(600,0,0,600,1915.04,1074.94)">
                    <path d="M0.5,-0.543C0.493,-0.55 0.484,-0.558 0.471,-0.567C0.458,-0.575 0.443,-0.583 0.426,-0.59C0.409,-0.597 0.39,-0.603 0.37,-0.608C0.35,-0.613 0.329,-0.615 0.308,-0.615C0.261,-0.615 0.227,-0.606 0.204,-0.589C0.181,-0.572 0.17,-0.548 0.17,-0.517C0.17,-0.495 0.176,-0.477 0.189,-0.464C0.202,-0.451 0.221,-0.44 0.247,-0.432C0.273,-0.423 0.306,-0.414 0.345,-0.404C0.393,-0.392 0.435,-0.379 0.47,-0.363C0.505,-0.348 0.532,-0.327 0.551,-0.301C0.57,-0.275 0.579,-0.241 0.579,-0.198C0.579,-0.162 0.572,-0.132 0.559,-0.106C0.546,-0.08 0.527,-0.059 0.503,-0.042C0.479,-0.026 0.451,-0.014 0.42,-0.006C0.389,0.001 0.355,0.005 0.319,0.005C0.284,0.005 0.249,0.001 0.214,-0.006C0.179,-0.013 0.145,-0.024 0.114,-0.039C0.082,-0.053 0.053,-0.07 0.026,-0.091L0.077,-0.187C0.086,-0.178 0.098,-0.169 0.115,-0.159C0.131,-0.148 0.15,-0.138 0.172,-0.129C0.193,-0.12 0.217,-0.112 0.243,-0.106C0.268,-0.099 0.294,-0.096 0.321,-0.096C0.366,-0.096 0.4,-0.104 0.424,-0.119C0.447,-0.135 0.459,-0.157 0.459,-0.186C0.459,-0.21 0.451,-0.23 0.436,-0.244C0.421,-0.258 0.398,-0.27 0.369,-0.28C0.34,-0.29 0.305,-0.3 0.264,-0.31C0.217,-0.323 0.178,-0.337 0.147,-0.352C0.116,-0.366 0.092,-0.386 0.077,-0.409C0.061,-0.433 0.053,-0.463 0.053,-0.5C0.053,-0.546 0.064,-0.586 0.087,-0.618C0.11,-0.65 0.141,-0.674 0.18,-0.691C0.219,-0.707 0.262,-0.715 0.311,-0.715C0.343,-0.715 0.373,-0.712 0.402,-0.705C0.431,-0.698 0.458,-0.688 0.483,-0.676C0.507,-0.664 0.53,-0.65 0.551,-0.635L0.5,-0.543Z" style="fill:white;fill-rule:nonzero;"/>
                </g>
            </g>
            <g transform="matrix(2.62617,0,0,2.55594,4391.76,-3591.15)">
                <g transform="matrix(400,0,0,400,-1009.13,2959.9)">
                    <path d="M0.04,-0C0.04,-0.028 0.042,-0.054 0.047,-0.078C0.052,-0.102 0.06,-0.125 0.071,-0.147C0.083,-0.168 0.1,-0.189 0.121,-0.208C0.141,-0.227 0.168,-0.246 0.201,-0.263C0.224,-0.277 0.246,-0.289 0.267,-0.299C0.288,-0.31 0.306,-0.32 0.322,-0.33C0.338,-0.341 0.35,-0.352 0.36,-0.364C0.369,-0.376 0.373,-0.39 0.373,-0.406C0.373,-0.421 0.369,-0.435 0.361,-0.448C0.353,-0.461 0.341,-0.471 0.325,-0.479C0.309,-0.487 0.29,-0.491 0.267,-0.491C0.249,-0.491 0.233,-0.489 0.218,-0.484C0.203,-0.479 0.189,-0.473 0.177,-0.466C0.164,-0.458 0.153,-0.45 0.143,-0.441C0.133,-0.432 0.124,-0.423 0.117,-0.414L0.048,-0.493C0.055,-0.501 0.065,-0.51 0.08,-0.521C0.094,-0.531 0.111,-0.541 0.132,-0.552C0.152,-0.562 0.175,-0.571 0.201,-0.578C0.227,-0.585 0.255,-0.588 0.286,-0.588C0.329,-0.588 0.366,-0.581 0.397,-0.566C0.428,-0.552 0.451,-0.532 0.468,-0.507C0.484,-0.481 0.492,-0.453 0.492,-0.421C0.492,-0.396 0.487,-0.374 0.477,-0.355C0.468,-0.336 0.455,-0.319 0.44,-0.305C0.425,-0.29 0.408,-0.278 0.392,-0.267C0.375,-0.257 0.359,-0.247 0.344,-0.239C0.318,-0.226 0.296,-0.214 0.277,-0.204C0.258,-0.193 0.241,-0.182 0.228,-0.172C0.215,-0.161 0.204,-0.15 0.195,-0.139C0.186,-0.128 0.179,-0.115 0.173,-0.099L0.503,-0.099L0.503,-0L0.04,-0Z" style="fill:white;fill-rule:nonzero;"/>
                </g>
                <g transform="matrix(400,0,0,400,-789.532,2959.9)">
                    <path d="M0.563,-0.289C0.563,-0.231 0.552,-0.179 0.53,-0.134C0.507,-0.089 0.477,-0.054 0.439,-0.028C0.4,-0.003 0.356,0.01 0.307,0.01C0.258,0.01 0.215,-0.003 0.176,-0.028C0.137,-0.054 0.107,-0.089 0.085,-0.134C0.062,-0.179 0.051,-0.231 0.051,-0.289C0.051,-0.346 0.062,-0.398 0.085,-0.443C0.107,-0.488 0.137,-0.523 0.176,-0.549C0.215,-0.575 0.258,-0.588 0.307,-0.588C0.356,-0.588 0.4,-0.575 0.439,-0.549C0.477,-0.523 0.507,-0.488 0.53,-0.443C0.552,-0.398 0.563,-0.346 0.563,-0.289ZM0.451,-0.289C0.451,-0.328 0.445,-0.362 0.433,-0.392C0.421,-0.421 0.404,-0.444 0.382,-0.461C0.36,-0.478 0.335,-0.486 0.307,-0.486C0.278,-0.486 0.253,-0.478 0.231,-0.461C0.209,-0.444 0.192,-0.421 0.18,-0.392C0.167,-0.362 0.161,-0.328 0.161,-0.289C0.161,-0.249 0.167,-0.215 0.18,-0.186C0.192,-0.157 0.209,-0.134 0.231,-0.117C0.253,-0.1 0.278,-0.092 0.307,-0.092C0.335,-0.092 0.36,-0.1 0.382,-0.117C0.403,-0.134 0.42,-0.157 0.433,-0.186C0.445,-0.215 0.451,-0.249 0.451,-0.289Z" style="fill:white;fill-rule:nonzero;"/>
                </g>
                <g transform="matrix(400,0,0,400,-543.932,2959.9)">
                    <path d="M0.04,-0C0.04,-0.028 0.042,-0.054 0.047,-0.078C0.052,-0.102 0.06,-0.125 0.071,-0.147C0.083,-0.168 0.1,-0.189 0.121,-0.208C0.141,-0.227 0.168,-0.246 0.201,-0.263C0.224,-0.277 0.246,-0.289 0.267,-0.299C0.288,-0.31 0.306,-0.32 0.322,-0.33C0.338,-0.341 0.35,-0.352 0.36,-0.364C0.369,-0.376 0.373,-0.39 0.373,-0.406C0.373,-0.421 0.369,-0.435 0.361,-0.448C0.353,-0.461 0.341,-0.471 0.325,-0.479C0.309,-0.487 0.29,-0.491 0.267,-0.491C0.249,-0.491 0.233,-0.489 0.218,-0.484C0.203,-0.479 0.189,-0.473 0.177,-0.466C0.164,-0.458 0.153,-0.45 0.143,-0.441C0.133,-0.432 0.124,-0.423 0.117,-0.414L0.048,-0.493C0.055,-0.501 0.065,-0.51 0.08,-0.521C0.094,-0.531 0.111,-0.541 0.132,-0.552C0.152,-0.562 0.175,-0.571 0.201,-0.578C0.227,-0.585 0.255,-0.588 0.286,-0.588C0.329,-0.588 0.366,-0.581 0.397,-0.566C0.428,-0.552 0.451,-0.532 0.468,-0.507C0.484,-0.481 0.492,-0.453 0.492,-0.421C0.492,-0.396 0.487,-0.374 0.477,-0.355C0.468,-0.336 0.455,-0.319 0.44,-0.305C0.425,-0.29 0.408,-0.278 0.392,-0.267C0.375,-0.257 0.359,-0.247 0.344,-0.239C0.318,-0.226 0.296,-0.214 0.277,-0.204C0.258,-0.193 0.241,-0.182 0.228,-0.172C0.215,-0.161 0.204,-0.15 0.195,-0.139C0.186,-0.128 0.179,-0.115 0.173,-0.099L0.503,-0.099L0.503,-0L0.04,-0Z" style="fill:white;fill-rule:nonzero;"/>
                </g>
                <g transform="matrix(400,0,0,400,-324.332,2959.9)">
                    <path d="M0.369,-0.243C0.397,-0.238 0.422,-0.228 0.443,-0.211C0.464,-0.194 0.48,-0.173 0.491,-0.148C0.502,-0.122 0.508,-0.094 0.508,-0.062C0.508,-0.02 0.498,0.017 0.477,0.048C0.457,0.079 0.428,0.104 0.391,0.121C0.354,0.138 0.31,0.147 0.259,0.147C0.208,0.147 0.164,0.138 0.125,0.12C0.086,0.103 0.055,0.077 0.032,0.044L0.099,-0.032C0.115,-0.008 0.136,0.011 0.161,0.025C0.186,0.04 0.218,0.047 0.257,0.047C0.3,0.047 0.334,0.037 0.358,0.018C0.382,-0.001 0.394,-0.03 0.394,-0.068C0.394,-0.108 0.381,-0.139 0.355,-0.162C0.328,-0.185 0.289,-0.196 0.236,-0.196L0.209,-0.196L0.209,-0.282L0.239,-0.282C0.284,-0.282 0.318,-0.293 0.342,-0.314C0.366,-0.336 0.378,-0.363 0.378,-0.396C0.378,-0.418 0.373,-0.436 0.364,-0.45C0.354,-0.464 0.34,-0.474 0.323,-0.481C0.306,-0.488 0.286,-0.491 0.263,-0.491C0.229,-0.491 0.199,-0.484 0.173,-0.469C0.147,-0.454 0.126,-0.433 0.111,-0.406L0.042,-0.481C0.055,-0.502 0.074,-0.521 0.097,-0.537C0.12,-0.553 0.147,-0.566 0.178,-0.575C0.208,-0.584 0.24,-0.588 0.274,-0.588C0.318,-0.588 0.357,-0.581 0.39,-0.566C0.423,-0.551 0.449,-0.53 0.468,-0.503C0.486,-0.476 0.495,-0.444 0.495,-0.407C0.495,-0.381 0.49,-0.356 0.48,-0.333C0.47,-0.309 0.455,-0.29 0.436,-0.274C0.417,-0.258 0.394,-0.248 0.369,-0.243Z" style="fill:white;fill-rule:nonzero;"/>
                </g>
            </g>
        </g>
    </g>
</svg>
